<?xml version="1.0" standalone="no"?>
<!DOCTYPE svg PUBLIC "-//W3C//DTD SVG 20010904//EN"
 "http://www.w3.org/TR/2001/REC-SVG-20010904/DTD/svg10.dtd">
<svg version="1.0" xmlns="http://www.w3.org/2000/svg"
 width="512.000000pt" height="512.000000pt" viewBox="0 0 512.000000 512.000000"
 preserveAspectRatio="xMidYMid meet">

<g transform="translate(0.000000,512.000000) scale(0.100000,-0.100000)"
fill="#000000" stroke="none">
<path d="M2548 4934 l-34 -107 -91 -39 -92 -39 -102 52 -101 52 -210 -210
-210 -210 52 -102 51 -103 -39 -91 -39 -91 -107 -34 -106 -33 0 -299 0 -299
106 -33 107 -34 38 -89 c22 -50 39 -93 39 -97 0 -5 -209 -8 -465 -8 l-465 0 0
321 0 321 -247 -4 -248 -3 -67 -32 c-93 -44 -151 -100 -196 -191 l-37 -76 0
-1536 0 -1536 37 -76 c45 -91 103 -147 196 -191 l67 -32 2328 -3 2327 -2 0
1520 0 1520 -545 0 c-300 0 -545 3 -545 8 0 4 17 47 38 96 l39 89 106 34 107
34 0 299 0 299 -107 34 -106 34 -39 91 -39 90 51 103 52 102 -210 209 -209
210 -102 -52 -103 -51 -91 39 -91 39 -34 107 -33 106 -299 0 -299 0 -33 -106z
m544 -150 l28 -90 73 -23 c39 -13 108 -41 151 -63 l80 -40 88 43 89 43 126
-127 127 -126 -43 -89 -43 -88 40 -80 c22 -43 50 -112 63 -151 l23 -73 90 -28
91 -28 0 -184 0 -184 -91 -28 -90 -28 -18 -58 c-10 -31 -39 -103 -64 -159
l-47 -102 -101 -1 -102 0 53 79 c227 339 181 803 -110 1097 -344 349 -899 351
-1245 4 -296 -295 -344 -759 -115 -1101 l53 -79 -102 0 -101 1 -47 102 c-25
56 -54 128 -64 160 l-18 57 -90 28 -91 28 0 184 0 184 91 28 90 28 23 73 c13
39 41 108 63 151 l40 80 -43 88 -43 89 127 126 126 127 88 -43 88 -43 85 42
c47 22 115 50 152 61 l68 21 21 71 c12 39 25 82 30 94 l9 23 182 -2 182 -3 28
-91z m3 -418 c113 -36 198 -89 290 -181 91 -91 144 -175 182 -290 23 -71 26
-96 26 -215 0 -119 -3 -144 -26 -215 -35 -105 -88 -194 -166 -277 l-63 -68
-458 0 -458 0 -63 68 c-78 83 -131 172 -166 277 -23 71 -26 96 -26 215 0 119
3 144 26 215 38 114 90 198 182 291 109 110 234 177 380 204 88 16 250 4 340
-24z m-2375 -2125 l0 -1359 -168 -3 -168 -4 -72 -36 -72 -35 0 1294 c0 987 3
1304 12 1336 15 51 99 137 148 153 19 6 99 11 178 12 l142 1 0 -1359z m4160
-641 l0 -1360 -2216 0 c-1711 0 -2226 3 -2258 12 -55 16 -138 99 -154 154 -28
94 -8 169 63 239 70 70 92 75 349 75 l216 0 0 1120 0 1120 2000 0 2000 0 0
-1360z"/>
<path d="M2786 4070 c-63 -16 -153 -70 -197 -117 -22 -24 -55 -74 -72 -111
-29 -61 -32 -76 -32 -163 0 -90 2 -99 37 -171 45 -91 103 -147 196 -191 61
-29 76 -32 162 -32 86 0 101 3 162 32 93 44 151 100 196 191 35 72 37 81 37
172 0 91 -2 100 -37 172 -68 136 -188 217 -336 224 -42 2 -94 -1 -116 -6z
m168 -162 c86 -26 166 -136 166 -228 0 -124 -116 -240 -240 -240 -63 0 -114
23 -165 75 -102 101 -102 229 0 330 70 71 145 90 239 63z"/>
<path d="M2000 2787 c-49 -16 -133 -102 -148 -153 -7 -23 -12 -67 -12 -98 l0
-56 -136 0 c-78 0 -154 -5 -178 -12 -55 -16 -138 -99 -154 -154 -16 -56 -16
-412 0 -468 12 -38 78 -116 120 -141 15 -9 11 -42 -48 -395 -35 -212 -66 -394
-69 -406 -4 -18 -14 -22 -65 -27 -39 -3 -76 -14 -105 -32 -76 -44 -97 -84
-144 -269 -22 -91 -41 -168 -41 -171 0 -3 405 -5 900 -5 495 0 900 2 900 5 0
3 -19 80 -42 171 -33 133 -47 175 -73 208 -41 55 -102 87 -176 93 -50 5 -60 9
-64 27 -3 12 -34 194 -69 406 -56 337 -62 386 -49 394 35 20 91 78 103 106
l12 30 569 0 569 0 0 -80 0 -80 80 0 80 0 0 -160 0 -160 240 0 240 0 0 160 0
160 80 0 80 0 0 296 c0 200 -4 310 -12 336 -17 59 -88 133 -145 152 -58 20
-412 23 -475 4 -48 -14 -121 -76 -138 -118 l-12 -30 -112 0 -111 0 -175 211
c-124 150 -187 218 -220 237 l-45 27 -460 2 c-317 1 -471 -2 -495 -10z m919
-156 c10 -6 75 -78 145 -160 l127 -151 -365 0 -364 0 -12 30 c-17 42 -90 104
-138 118 -22 7 -100 12 -176 12 l-136 0 0 55 c0 46 4 60 25 80 l24 25 426 0
c248 0 434 -4 444 -9z m-624 -336 c25 -24 25 -26 25 -215 0 -189 0 -191 -25
-215 l-24 -25 -351 0 -351 0 -24 25 c-25 24 -25 26 -25 215 0 189 0 191 25
215 l24 25 351 0 351 0 24 -25z m1920 0 c25 -24 25 -24 25 -240 l0 -215 -240
0 -240 0 0 215 c0 286 -19 265 240 265 189 0 191 0 215 -25z m-615 -215 l0
-80 -560 0 -560 0 0 80 0 80 560 0 560 0 0 -80z m-1425 -422 c9 -41 125 -747
125 -762 0 -14 -43 -16 -380 -16 -337 0 -380 2 -380 16 0 15 116 721 125 762
l5 22 250 0 250 0 5 -22z m1905 -58 l0 -80 -80 0 -80 0 0 80 0 80 80 0 80 0 0
-80z m-1516 -902 c15 -14 31 -45 40 -80 l14 -58 -698 0 -698 0 14 58 c9 35 25
66 40 80 l25 22 619 0 619 0 25 -22z"/>
<path d="M3920 800 l0 -80 400 0 400 0 0 80 0 80 -400 0 -400 0 0 -80z"/>
<path d="M3920 480 l0 -80 80 0 80 0 0 80 0 80 -80 0 -80 0 0 -80z"/>
<path d="M4240 480 l0 -80 80 0 80 0 0 80 0 80 -80 0 -80 0 0 -80z"/>
<path d="M4560 480 l0 -80 80 0 80 0 0 80 0 80 -80 0 -80 0 0 -80z"/>
</g>
</svg>
