<?xml version="1.0" standalone="no"?>
<!DOCTYPE svg PUBLIC "-//W3C//DTD SVG 20010904//EN"
 "http://www.w3.org/TR/2001/REC-SVG-20010904/DTD/svg10.dtd">
<svg version="1.0" xmlns="http://www.w3.org/2000/svg"
 width="512.000000pt" height="512.000000pt" viewBox="0 0 512.000000 512.000000"
 preserveAspectRatio="xMidYMid meet">

<g transform="translate(0.000000,512.000000) scale(0.100000,-0.100000)"
fill="#000000" stroke="none">
<path d="M3116 4974 c-181 -44 -331 -201 -368 -387 l-14 -68 -189 -147 c-105
-82 -367 -286 -583 -455 l-393 -307 -54 0 c-62 0 -156 -27 -217 -63 -59 -34
-140 -122 -173 -187 -96 -189 -48 -427 113 -557 59 -47 56 -42 91 -143 16 -47
56 -162 89 -256 l60 -170 -59 -48 c-168 -136 -306 -391 -334 -619 l-7 -57
-167 0 c-188 0 -253 -12 -364 -64 -247 -115 -397 -351 -397 -625 0 -53 7 -125
16 -161 54 -231 239 -424 484 -506 52 -18 124 -19 1385 -22 1503 -3 1415 -7
1584 75 78 37 109 59 176 127 144 144 212 319 202 521 -12 250 -160 476 -380
583 -123 60 -186 72 -379 72 l-165 0 -17 92 c-29 158 -84 291 -172 414 -65 93
-209 222 -305 276 -46 26 -89 51 -95 56 -6 5 -115 175 -244 377 l-233 367 24
23 c26 25 1068 838 1097 856 15 10 103 -25 523 -208 l504 -219 3 -152 3 -151
-31 -43 c-61 -88 -73 -216 -31 -328 l19 -50 -114 -142 c-93 -117 -114 -149
-114 -176 0 -27 16 -50 106 -147 63 -69 116 -118 132 -122 53 -13 112 49 93
99 -5 12 -38 55 -75 94 -36 40 -66 76 -66 82 0 11 138 185 150 190 5 2 28 -7
52 -20 37 -20 57 -23 148 -23 91 0 111 3 148 23 24 13 47 22 52 20 5 -2 42
-45 83 -97 l76 -94 -75 -81 c-64 -70 -74 -86 -74 -118 0 -28 6 -42 26 -57 55
-43 81 -28 219 125 116 128 117 122 -29 304 l-114 143 21 46 c15 34 21 68 21
131 1 91 -13 140 -59 208 -25 36 -25 40 -25 248 0 177 3 218 17 250 11 26 17
67 17 124 1 72 -3 94 -26 142 -15 32 -46 75 -70 97 -68 63 -1120 837 -1177
865 -107 55 -227 69 -345 40z m254 -172 c57 -25 1135 -821 1174 -867 90 -107
-10 -305 -155 -305 -20 0 -195 71 -448 181 -229 100 -515 224 -636 277 -121
52 -236 105 -256 118 -92 57 -149 166 -149 283 0 153 84 270 233 323 65 23
172 19 237 -10z m-593 -509 c25 -62 100 -160 148 -194 25 -18 45 -35 45 -39 0
-8 -991 -783 -994 -778 -1 2 -16 33 -34 69 -32 66 -88 133 -150 179 l-34 25
439 342 c241 188 463 363 493 387 30 25 59 45 63 45 4 1 15 -16 24 -36z m1763
-865 l0 -73 -110 0 -110 0 0 60 0 60 57 -3 c32 -2 78 4 103 12 25 8 48 14 53
15 4 1 7 -32 7 -71z m-2874 -11 c103 -52 159 -147 158 -267 0 -90 -29 -155
-93 -213 -59 -53 -98 -70 -177 -75 -131 -8 -234 50 -291 166 -23 46 -27 69
-26 127 2 136 71 233 202 282 56 21 165 11 227 -20z m2852 -236 c134 -69 149
-240 29 -335 -36 -29 -45 -31 -116 -31 -70 0 -81 3 -115 29 -155 118 -81 354
112 356 33 0 67 -7 90 -19z m-2369 -609 c116 -182 221 -351 233 -375 20 -36
23 -57 23 -142 0 -105 -11 -140 -68 -217 -34 -45 -117 -96 -187 -114 -55 -14
-75 -15 -129 -5 -106 20 -188 74 -236 155 -21 37 -295 794 -295 817 0 5 27 9
59 9 125 0 273 75 343 175 18 25 35 42 39 38 3 -5 101 -158 218 -341z m509
-539 c132 -129 212 -287 246 -485 l7 -38 -836 0 -837 0 7 53 c15 110 69 245
138 347 34 49 136 160 147 160 4 0 26 -54 49 -119 81 -229 199 -344 396 -386
87 -18 113 -18 197 -1 228 49 398 250 398 473 0 35 4 63 9 63 5 0 41 -30 79
-67z m787 -698 c231 -60 395 -276 395 -518 0 -238 -177 -457 -414 -512 -58
-14 -227 -15 -1383 -13 l-1318 3 -57 22 c-171 65 -293 194 -342 362 -21 71
-21 211 0 282 55 185 196 325 377 374 43 11 270 14 1367 14 1151 1 1323 -1
1375 -14z"/>
<path d="M3177 4687 c-155 -50 -197 -246 -74 -354 147 -129 378 6 336 197 -27
121 -149 194 -262 157z m93 -167 c25 -25 25 -32 1 -61 -16 -20 -23 -22 -47
-14 -34 12 -44 54 -19 79 22 21 41 20 65 -4z"/>
<path d="M1445 3341 c-22 -10 -52 -31 -67 -47 -28 -30 -58 -101 -58 -138 0
-75 69 -174 137 -197 56 -18 145 -7 191 23 47 32 92 114 92 170 0 148 -161
251 -295 189z m129 -173 c12 -34 -6 -58 -45 -58 -43 0 -63 45 -33 75 25 24 67
15 78 -17z"/>
<path d="M1990 2245 c-84 -38 -124 -107 -118 -205 4 -74 28 -117 90 -162 49
-34 158 -37 213 -6 95 56 133 183 83 278 -36 67 -94 103 -171 107 -41 2 -74
-2 -97 -12z m118 -157 c16 -16 15 -53 -2 -67 -8 -7 -27 -11 -43 -9 -51 6 -41
88 11 88 12 0 27 -5 34 -12z"/>
<path d="M701 1230 c-118 -43 -197 -114 -254 -230 -30 -61 -32 -70 -32 -180 0
-109 2 -118 32 -181 56 -115 163 -202 288 -235 41 -11 294 -14 1335 -14 1403
0 1343 -2 1452 57 26 14 70 50 97 78 89 93 128 203 118 331 -13 171 -133 324
-294 374 -64 20 -89 20 -1377 20 -1268 -1 -1313 -1 -1365 -20z m2741 -172 c89
-53 138 -140 138 -244 0 -109 -89 -223 -198 -254 -24 -6 -474 -10 -1308 -10
-1406 0 -1331 -3 -1411 65 -150 128 -114 372 67 454 45 21 55 21 1355 18
l1310 -2 47 -27z"/>
<path d="M889 1022 c-77 -40 -119 -111 -119 -199 0 -77 22 -126 80 -175 133
-114 327 -48 371 125 24 98 -31 209 -124 253 -72 33 -139 32 -208 -4z m161
-159 c25 -32 20 -69 -12 -95 -46 -40 -108 -7 -108 56 0 65 79 90 120 39z"/>
<path d="M1973 1026 c-63 -30 -107 -87 -124 -160 -36 -164 122 -312 285 -266
57 16 123 72 147 124 11 25 19 64 19 101 0 168 -171 273 -327 201z m145 -152
c15 -11 22 -25 22 -50 0 -63 -62 -96 -108 -56 -71 59 10 160 86 106z"/>
<path d="M3064 1036 c-51 -23 -100 -73 -124 -128 -79 -184 114 -377 298 -298
188 81 188 346 0 424 -45 19 -132 20 -174 2z m136 -166 c41 -41 7 -120 -52
-120 -26 0 -68 44 -68 71 0 57 79 90 120 49z"/>
<path d="M829 3783 c-81 -84 -120 -142 -169 -246 -65 -138 -84 -229 -83 -397
0 -168 18 -252 83 -388 43 -91 80 -147 142 -219 67 -79 112 -90 158 -41 32 35
25 70 -26 130 -103 121 -162 240 -190 385 -45 239 29 483 206 677 44 47 54 65
54 93 0 44 -32 73 -78 73 -27 0 -44 -12 -97 -67z"/>
<path d="M1064 3660 c-29 -11 -100 -95 -147 -172 -62 -103 -90 -204 -91 -333
-1 -132 12 -191 70 -311 54 -113 134 -204 179 -204 34 1 56 15 74 48 18 33 7
63 -41 119 -96 111 -143 278 -119 420 16 91 67 199 124 261 24 26 49 57 56 69
15 30 4 69 -26 93 -28 21 -46 24 -79 10z"/>
</g>
</svg>
