<?xml version="1.0" encoding="UTF-8"?>
<svg xmlns="http://www.w3.org/2000/svg" xmlns:xlink="http://www.w3.org/1999/xlink" width="5000px" height="1449px" viewBox="0 0 4999 1449" version="1.1">
<g id="surface1">
<path style=" stroke:none;fill-rule:nonzero;fill:rgb(0%,0%,0%);fill-opacity:1;" d="M 373.964844 266.535156 C 373.964844 343.171875 313.867188 405.289062 239.753906 405.289062 C 165.640625 405.289062 105.539062 343.171875 105.539062 266.535156 C 105.539062 189.933594 165.640625 127.796875 239.753906 127.796875 C 313.867188 127.796875 373.964844 189.933594 373.964844 266.535156 Z M 373.964844 266.535156 "/>
<path style=" stroke:none;fill-rule:nonzero;fill:rgb(0%,0%,0%);fill-opacity:1;" d="M 373.964844 739.363281 C 373.964844 816.003906 313.867188 878.121094 239.753906 878.121094 C 165.640625 878.121094 105.539062 816.003906 105.539062 739.363281 C 105.539062 662.746094 165.640625 600.628906 239.753906 600.628906 C 313.867188 600.628906 373.964844 662.746094 373.964844 739.363281 Z M 373.964844 739.363281 "/>
<path style=" stroke:none;fill-rule:nonzero;fill:rgb(0%,0%,0%);fill-opacity:1;" d="M 373.964844 1212.214844 C 373.964844 1288.832031 313.867188 1350.96875 239.753906 1350.96875 C 165.640625 1350.96875 105.539062 1288.832031 105.539062 1212.214844 C 105.539062 1135.59375 165.640625 1073.457031 239.753906 1073.457031 C 313.867188 1073.457031 373.964844 1135.59375 373.964844 1212.214844 Z M 373.964844 1212.214844 "/>
<path style=" stroke:none;fill-rule:nonzero;fill:rgb(0%,0%,0%);fill-opacity:1;" d="M 842.28125 739.363281 C 842.28125 816.003906 782.195312 878.121094 708.066406 878.121094 C 633.953125 878.121094 573.867188 816.003906 573.867188 739.363281 C 573.867188 662.746094 633.96875 600.628906 708.066406 600.628906 C 782.195312 600.628906 842.28125 662.746094 842.28125 739.363281 Z M 842.28125 739.363281 "/>
<path style=" stroke:none;fill-rule:nonzero;fill:rgb(0%,0%,0%);fill-opacity:1;" d="M 842.28125 266.535156 C 842.28125 343.171875 782.195312 405.289062 708.066406 405.289062 C 633.953125 405.289062 573.867188 343.171875 573.867188 266.535156 C 573.867188 189.933594 633.96875 127.796875 708.066406 127.796875 C 782.195312 127.796875 842.28125 189.933594 842.28125 266.535156 Z M 842.28125 266.535156 "/>
<path style=" stroke:none;fill-rule:nonzero;fill:rgb(0%,0%,0%);fill-opacity:1;" d="M 1310.609375 739.363281 C 1310.609375 816.003906 1250.507812 878.121094 1176.394531 878.121094 C 1102.28125 878.121094 1042.179688 816.003906 1042.179688 739.363281 C 1042.179688 662.746094 1102.28125 600.628906 1176.394531 600.628906 C 1250.507812 600.628906 1310.609375 662.746094 1310.609375 739.363281 Z M 1310.609375 739.363281 "/>
<path style=" stroke:none;fill-rule:nonzero;fill:rgb(0%,0%,0%);fill-opacity:1;" d="M 1310.609375 266.535156 C 1310.609375 343.171875 1250.507812 405.289062 1176.394531 405.289062 C 1102.28125 405.289062 1042.179688 343.171875 1042.179688 266.535156 C 1042.179688 189.933594 1102.28125 127.796875 1176.394531 127.796875 C 1250.507812 127.796875 1310.609375 189.933594 1310.609375 266.535156 Z M 1310.609375 266.535156 "/>
<path style=" stroke:none;fill-rule:nonzero;fill:rgb(0%,0%,0%);fill-opacity:1;" d="M 1310.609375 1212.214844 C 1310.609375 1288.832031 1250.507812 1350.96875 1176.394531 1350.96875 C 1102.28125 1350.96875 1042.179688 1288.832031 1042.179688 1212.214844 C 1042.179688 1135.59375 1102.28125 1073.457031 1176.394531 1073.457031 C 1250.507812 1073.457031 1310.609375 1135.59375 1310.609375 1212.214844 Z M 1310.609375 1212.214844 "/>
<path style=" stroke:none;fill-rule:nonzero;fill:rgb(0%,0%,0%);fill-opacity:1;" d="M 842.28125 1212.214844 C 842.28125 1288.832031 782.195312 1350.96875 708.066406 1350.96875 C 633.953125 1350.96875 573.867188 1288.832031 573.867188 1212.214844 C 573.867188 1135.59375 633.96875 1073.457031 708.066406 1073.457031 C 782.195312 1073.457031 842.28125 1135.59375 842.28125 1212.214844 Z M 842.28125 1212.214844 "/>
<path style=" stroke:none;fill-rule:nonzero;fill:rgb(0%,0%,0%);fill-opacity:1;" d="M 2334.023438 850.652344 L 2574.515625 1347.914062 L 2371.035156 1347.914062 L 2137.269531 866.3125 L 1871.550781 866.3125 L 1871.550781 1347.914062 L 1698.335938 1347.914062 L 1698.335938 130.816406 L 2214.636719 130.816406 C 2419.800781 130.816406 2593.015625 243.839844 2593.015625 494.207031 C 2593.015625 688.949219 2493.804688 808.914062 2334.023438 850.652344 Z M 2214.636719 302.9375 L 1871.550781 302.9375 L 1871.550781 694.15625 L 2214.636719 694.15625 C 2332.359375 694.15625 2414.753906 631.570312 2414.753906 499.414062 C 2414.753906 372.484375 2334.023438 302.9375 2214.636719 302.9375 Z M 2214.636719 302.9375 "/>
<path style=" stroke:none;fill-rule:nonzero;fill:rgb(0%,0%,0%);fill-opacity:1;" d="M 3307.804688 1367.046875 C 3003.414062 1367.046875 2810.003906 1107.980469 2810.003906 739.363281 C 2810.003906 370.765625 3003.414062 111.683594 3307.804688 111.683594 C 3613.878906 111.683594 3807.289062 370.765625 3807.289062 739.363281 C 3807.289062 1107.980469 3613.878906 1367.046875 3307.804688 1367.046875 Z M 3307.804688 294.253906 C 3102.640625 294.253906 2989.960938 466.375 2989.960938 739.363281 C 2989.960938 1012.355469 3102.640625 1184.472656 3307.804688 1184.472656 C 3514.667969 1184.472656 3627.332031 1012.355469 3627.332031 739.363281 C 3627.332031 466.375 3514.667969 294.253906 3307.804688 294.253906 Z M 3307.804688 294.253906 "/>
<path style=" stroke:none;fill-rule:nonzero;fill:rgb(0%,0%,0%);fill-opacity:1;" d="M 4414.445312 1367.046875 C 4242.894531 1367.046875 4094.921875 1290.550781 3995.691406 1170.566406 L 4121.824219 1043.640625 C 4200.875 1132.320312 4316.898438 1187.964844 4427.898438 1187.964844 C 4592.703125 1187.964844 4671.753906 1128.832031 4671.753906 1010.601562 C 4671.753906 916.710938 4602.8125 869.765625 4406.019531 808.914062 C 4157.136719 732.421875 4037.75 668.078125 4037.75 450.75 C 4037.75 240.367188 4209.261719 111.683594 4426.214844 111.683594 C 4585.980469 111.683594 4707.046875 172.535156 4811.320312 276.859375 L 4686.886719 407.277344 C 4612.882812 329.03125 4528.808594 290.785156 4412.765625 290.785156 C 4274.84375 290.785156 4215.988281 360.332031 4215.988281 442.054688 C 4215.988281 527.246094 4269.816406 568.980469 4473.316406 631.570312 C 4705.382812 704.589844 4850.03125 781.101562 4850.03125 998.429688 C 4850.011719 1217.511719 4715.472656 1367.046875 4414.445312 1367.046875 Z M 4414.445312 1367.046875 "/>
</g>
</svg>
